<?xml version="1.0" encoding="UTF-8" standalone="no"?>
<!-- Created with Inkscape (http://www.inkscape.org/) -->

<svg
   xmlns:osb="http://www.openswatchbook.org/uri/2009/osb"
   xmlns:dc="http://purl.org/dc/elements/1.1/"
   xmlns:cc="http://creativecommons.org/ns#"
   xmlns:rdf="http://www.w3.org/1999/02/22-rdf-syntax-ns#"
   xmlns:svg="http://www.w3.org/2000/svg"
   xmlns="http://www.w3.org/2000/svg"
   xmlns:xlink="http://www.w3.org/1999/xlink"
   xmlns:sodipodi="http://sodipodi.sourceforge.net/DTD/sodipodi-0.dtd"
   xmlns:inkscape="http://www.inkscape.org/namespaces/inkscape"
   width="210mm"
   height="297mm"
   viewBox="0 0 210 297"
   version="1.1"
   id="svg8"
   inkscape:version="0.92.3 (2405546, 2018-03-11)"
   sodipodi:docname="logo1.svg">
  <defs
     id="defs2">
    <linearGradient
       id="linearGradient1000"
       osb:paint="solid">
      <stop
         style="stop-color:#000000;stop-opacity:1;"
         offset="0"
         id="stop998" />
    </linearGradient>
    <linearGradient
       inkscape:collect="always"
       id="linearGradient126">
      <stop
         style="stop-color:#000000;stop-opacity:1;"
         offset="0"
         id="stop122" />
      <stop
         style="stop-color:#000000;stop-opacity:0;"
         offset="1"
         id="stop124" />
    </linearGradient>
    <linearGradient
       inkscape:collect="always"
       id="linearGradient94">
      <stop
         style="stop-color:#ff0000;stop-opacity:1;"
         offset="0"
         id="stop90" />
      <stop
         style="stop-color:#000000;stop-opacity:0.99983529"
         offset="1"
         id="stop92" />
    </linearGradient>
    <radialGradient
       inkscape:collect="always"
       xlink:href="#linearGradient94"
       id="radialGradient98"
       cx="383.57172"
       cy="164.07742"
       fx="383.57172"
       fy="164.07742"
       r="75"
       gradientUnits="userSpaceOnUse"
       gradientTransform="matrix(0.93738094,0.03023827,-0.03224302,0.99948006,-245.40534,-26.001389)" />
    <linearGradient
       inkscape:collect="always"
       xlink:href="#linearGradient126"
       id="linearGradient128"
       x1="97.929176"
       y1="74.652534"
       x2="103.93191"
       y2="66.121284"
       gradientUnits="userSpaceOnUse" />
    <linearGradient
       inkscape:collect="always"
       xlink:href="#linearGradient126"
       id="linearGradient134"
       gradientUnits="userSpaceOnUse"
       x1="97.929176"
       y1="74.652534"
       x2="103.93191"
       y2="66.121284" />
    <linearGradient
       inkscape:collect="always"
       xlink:href="#linearGradient1000"
       id="linearGradient1002"
       x1="10.261892"
       y1="266.0853"
       x2="43.047877"
       y2="266.0853"
       gradientUnits="userSpaceOnUse" />
    <linearGradient
       inkscape:collect="always"
       xlink:href="#linearGradient1000"
       id="linearGradient1058"
       gradientUnits="userSpaceOnUse"
       x1="10.261892"
       y1="266.0853"
       x2="43.047877"
       y2="266.0853" />
    <linearGradient
       inkscape:collect="always"
       xlink:href="#linearGradient1000"
       id="linearGradient1060"
       gradientUnits="userSpaceOnUse"
       x1="10.261892"
       y1="266.0853"
       x2="43.047877"
       y2="266.0853" />
    <linearGradient
       inkscape:collect="always"
       xlink:href="#linearGradient1000"
       id="linearGradient1062"
       gradientUnits="userSpaceOnUse"
       x1="10.261892"
       y1="266.0853"
       x2="43.047877"
       y2="266.0853" />
    <linearGradient
       inkscape:collect="always"
       xlink:href="#linearGradient1000"
       id="linearGradient1064"
       gradientUnits="userSpaceOnUse"
       x1="10.261892"
       y1="266.0853"
       x2="43.047877"
       y2="266.0853" />
    <linearGradient
       inkscape:collect="always"
       xlink:href="#linearGradient1000"
       id="linearGradient1066"
       gradientUnits="userSpaceOnUse"
       x1="10.261892"
       y1="266.0853"
       x2="43.047877"
       y2="266.0853" />
    <linearGradient
       inkscape:collect="always"
       xlink:href="#linearGradient1000"
       id="linearGradient1068"
       gradientUnits="userSpaceOnUse"
       x1="10.261892"
       y1="266.0853"
       x2="43.047877"
       y2="266.0853" />
    <linearGradient
       inkscape:collect="always"
       xlink:href="#linearGradient1000"
       id="linearGradient1070"
       gradientUnits="userSpaceOnUse"
       x1="10.261892"
       y1="266.0853"
       x2="43.047877"
       y2="266.0853" />
  </defs>
  <sodipodi:namedview
     id="base"
     pagecolor="#ffffff"
     bordercolor="#666666"
     borderopacity="1.0"
     inkscape:pageopacity="0.0"
     inkscape:pageshadow="2"
     inkscape:zoom="0.35"
     inkscape:cx="281.42857"
     inkscape:cy="560"
     inkscape:document-units="mm"
     inkscape:current-layer="layer1"
     showgrid="false"
     inkscape:measure-start="120,708.571"
     inkscape:measure-end="797.143,717.143"
     showguides="false"
     inkscape:window-width="1366"
     inkscape:window-height="705"
     inkscape:window-x="-8"
     inkscape:window-y="-8"
     inkscape:window-maximized="1"
     inkscape:object-paths="true"
     inkscape:snap-nodes="false" />
  <metadata
     id="metadata5">
    <rdf:RDF>
      <cc:Work
         rdf:about="">
        <dc:format>image/svg+xml</dc:format>
        <dc:type
           rdf:resource="http://purl.org/dc/dcmitype/StillImage" />
        <dc:title></dc:title>
      </cc:Work>
    </rdf:RDF>
  </metadata>
  <g
     inkscape:label="Capa 1"
     inkscape:groupmode="layer"
     id="layer1">
    <path
       sodipodi:type="spiral"
       style="fill:#ff0000;fill-rule:evenodd;stroke:#000000;stroke-width:0.26458332"
       id="path110"
       sodipodi:cx="-122.46429"
       sodipodi:cy="111.79166"
       sodipodi:expansion="0.60000002"
       sodipodi:revolution="5"
       sodipodi:radius="81.69883"
       sodipodi:argument="-17.315781"
       sodipodi:t0="0"
       d="m -122.46429,111.79166 c 0.36433,9.83658 -10.82516,6.86527 -13.53007,0.50112 -3.96314,-9.32454 3.80436,-18.949818 12.77051,-21.008879 12.857,-2.952589 24.857728,7.077315 26.915657,19.538989 2.598039,15.73227 -9.641227,30.00933 -25.004807,32.05271 -18.27627,2.43077 -34.64837,-11.83403 -36.6884,-29.76772 -2.34315,-20.598316 13.79122,-38.914679 34.06873,-40.961449 22.75556,-2.2969 42.894376,15.581793 44.955335,38.034559 2.274883,24.78331 -17.246317,46.64459 -41.741925,48.72512 -26.70548,2.26822 -50.20553,-18.81103 -52.30952,-45.24165 -2.27185,-28.539191 20.29405,-53.606676 48.56947,-55.736996 30.297308,-2.282651 56.870517,21.708526 59.029277,51.751756 2.298626,31.98974 -23.064365,60.01459 -54.808607,62.20336 -33.62438,2.31841 -63.05294,-24.36925 -65.2729,-57.75578 -2.34105,-35.207597 25.6293,-65.997007 60.60594,-68.249038 36.744652,-2.365869 68.856272,26.849454 71.141024,63.369398 2.392359,38.23995 -28.033814,71.6387 -66.054754,73.95665 -39.69721,2.42015 -74.35104,-29.18579 -76.70254,-68.66921 -2.44894,-41.119629 30.30829,-76.999111 71.21894,-79.384384 42.509946,-2.478519 79.587918,31.403779 82.007125,73.709204 2.508709,43.87057 -32.474406,82.12186 -76.144595,84.57509"
       transform="matrix(1.3591736,0,0,1.3687189,269.52527,0.61050696)" />
    <circle
       style="opacity:1;fill:url(#radialGradient98);fill-opacity:1;stroke-width:0.42518833"
       id="path22"
       cx="106.75002"
       cy="150.94048"
       r="75" />
    <path
       sodipodi:type="star"
       style="fill:#000000;stroke-width:0.26458332"
       id="path53"
       sodipodi:sides="5"
       sodipodi:cx="102.05356"
       sodipodi:cy="64.166669"
       sodipodi:r1="16.178087"
       sodipodi:r2="8.0890436"
       sodipodi:arg1="0.9179497"
       sodipodi:arg2="1.5462682"
       inkscape:flatsided="false"
       inkscape:rounded="0"
       inkscape:randomized="0"
       d="m 111.88094,77.017862 -9.62899,-4.76458 -9.383772,5.23102 1.555862,-10.630051 -7.87474,-7.308021 10.590568,-1.805153 4.516912,-9.747626 4.98947,9.514405 10.66634,1.283657 -7.5069,7.685379 z"
       inkscape:transform-center-x="0.12261148"
       inkscape:transform-center-y="-1.4277953" />
    <path
       sodipodi:type="star"
       style="fill:#000000;stroke-width:0.26458332"
       id="path53-6"
       sodipodi:sides="5"
       sodipodi:cx="195.91427"
       sodipodi:cy="149.50517"
       sodipodi:r1="16.178087"
       sodipodi:r2="8.0890436"
       sodipodi:arg1="0.9179497"
       sodipodi:arg2="1.5462682"
       inkscape:flatsided="false"
       inkscape:rounded="0"
       inkscape:randomized="0"
       d="m 205.74166,162.35636 -9.62899,-4.76458 -9.38377,5.23102 1.55586,-10.63005 -7.87474,-7.30802 10.59057,-1.80515 4.51691,-9.74763 4.98947,9.51441 10.66634,1.28365 -7.5069,7.68538 z"
       inkscape:transform-center-x="0.12261148"
       inkscape:transform-center-y="-1.4277953" />
    <path
       sodipodi:type="star"
       style="fill:#000000;stroke-width:0.26458332"
       id="path53-9"
       sodipodi:sides="5"
       sodipodi:cx="18.265472"
       sodipodi:cy="147.99327"
       sodipodi:r1="16.178087"
       sodipodi:r2="8.0890436"
       sodipodi:arg1="0.9179497"
       sodipodi:arg2="1.5462682"
       inkscape:flatsided="false"
       inkscape:rounded="0"
       inkscape:randomized="0"
       d="m 28.092853,160.84446 -9.628991,-4.76458 -9.3837703,5.23102 1.5558623,-10.63005 -7.8747398,-7.30802 10.5905678,-1.80515 4.516913,-9.74763 4.989468,9.51441 10.666345,1.28365 -7.506906,7.68538 z"
       inkscape:transform-center-x="0.12261148"
       inkscape:transform-center-y="-1.4277953" />
    <g
       id="g191"
       transform="translate(82.458602,-26.171152)"
       style="fill:url(#linearGradient1002);fill-opacity:1;stroke:#00fed8;stroke-opacity:1">
      <path
         inkscape:connector-curvature="0"
         d="m 13.485722,245.09604 c 2.05398,0.001 4.09303,-0.0656 6.12774,0.24159 1.48676,0.2778 2.99141,0.40721 4.50036,0.47487 1.24778,0.34725 2.56271,0.42713 3.8,0.79464 1.1862,0.27727 2.3142,0.70453 3.47463,1.06501 1.31181,0.35226 2.6758,0.39637 4.02547,0.4371 1.1498,0.11433 1.73785,0.50438 1.52677,1.67778 -0.17836,1.17445 -0.80346,2.15186 -1.50022,3.08213 -0.75135,0.90525 -1.60385,1.71537 -2.42482,2.55515 -0.83822,0.69467 -1.66852,1.35262 -2.394,2.1734 -0.83537,0.84451 -1.50506,1.82623 -2.19227,2.78975 -0.77138,1.08034 -1.40431,2.2686 -1.94562,3.48026 -0.45934,1.05576 -1.13133,1.97189 -1.85162,2.8593 -0.67892,0.86559 -1.09809,1.8997 -1.78795,2.75036 -0.7515,0.79775 -1.26628,1.79729 -1.70842,2.7931 -0.52576,0.99903 -0.94538,2.04479 -1.56033,2.99459 -0.62737,0.90924 -1.14133,1.88704 -1.67889,2.8497 -0.49497,1.00018 -1.01593,1.97128 -1.6491,2.89186 -0.16696,0.48472 -1.31854,1.47094 -0.46651,1.72586 0.90399,0.60852 2.01139,0.62277 3.02004,0.93286 1.22924,0.44235 2.52314,0.58546 3.81727,0.6762 1.48218,0.0778 2.96706,0.0731 4.45081,0.0739 1.51384,-0.002 3.02768,-0.004 4.54152,-0.006 1.51246,-10e-4 3.02493,-10e-4 4.5374,-0.002 1.25993,-5e-5 2.51985,-3e-5 3.77978,-10e-6 0,0 -3.01815,2.19281 -3.01815,2.19281 v 0 c -1.25992,-1e-5 -2.51984,-4e-5 -3.77976,4e-5 -1.51238,1.4e-4 -3.02477,2.6e-4 -4.53715,0.002 -1.51402,0.002 -3.02804,0.005 -4.54206,0.005 -1.4902,-0.003 -2.98198,1.1e-4 -4.46982,-0.0949 -1.31329,-0.10955 -2.61646,-0.29408 -3.86603,-0.73371 -1.04426,-0.27286 -2.14373,-0.37902 -3.0731,-0.98268 -1.07781,-0.70014 -0.27555,-1.42053 0.17444,-2.29119 0.61569,-0.92756 1.23319,-1.83408 1.65822,-2.87225 0.59226,-0.93503 1.02832,-1.96588 1.66654,-2.87638 0.68844,-0.89204 1.02652,-1.9563 1.59621,-2.92009 0.4021,-1.03268 0.94111,-2.06409 1.65337,-2.91115 0.79335,-0.76129 1.14235,-1.84953 1.79909,-2.72516 0.68597,-0.8925 1.43584,-1.72558 1.89799,-2.77102 0.50379,-1.24188 1.16827,-2.43946 1.91339,-3.54945 0.66212,-0.98047 1.33703,-1.97736 2.17441,-2.81689 0.68067,-0.87455 1.4766,-1.57275 2.38656,-2.1941 0.7788,-0.8738 1.67487,-1.63549 2.44564,-2.51941 0.66695,-0.89702 1.38917,-1.77986 1.55525,-2.92617 0.25352,-1.09813 -0.0324,-0.96654 -1.17577,-1.13065 -1.37518,-0.0523 -2.76416,-0.11881 -4.09143,-0.51648 -1.14968,-0.3776 -2.28963,-0.75849 -3.46506,-1.05241 -1.23213,-0.30694 -2.50331,-0.4744 -3.74659,-0.73261 -1.51429,-0.0808 -3.02132,-0.23464 -4.51412,-0.50875 -2.02747,-0.28375 -4.06571,-0.19973 -6.10872,-0.1889 0,0 3.02461,-2.19751 3.02461,-2.19751 z"
         id="path154"
         style="opacity:1;fill:url(#linearGradient1058);fill-opacity:1;stroke:#00fed8;stroke-width:0.26458332;stroke-opacity:1" />
      <path
         inkscape:connector-curvature="0"
         d="m 15.752423,243.74053 c 1.98124,-0.11063 3.92957,0.2304 5.885725,0.47956 1.552134,0.40796 3.113697,0.73529 4.709784,0.90493 1.347585,0.10592 2.640011,0.52146 3.980845,0.70504 1.36729,0.19792 2.77187,-0.044 4.048913,0.54522 0.666523,0.40747 1.39101,0.6531 2.141898,0.84575 0,0 -3.083388,2.11633 -3.083388,2.11633 v 0 c -0.755544,-0.22066 -1.482006,-0.49776 -2.170933,-0.88422 -1.274792,-0.47397 -2.664359,-0.22751 -3.990589,-0.47077 -1.330572,-0.20426 -2.623052,-0.6093 -3.969191,-0.69907 -1.592612,-0.19268 -3.145576,-0.55407 -4.707155,-0.91412 -1.949667,-0.25846 -3.895328,-0.56489 -5.870521,-0.43114 0,0 3.024612,-2.19751 3.024612,-2.19751 z"
         id="path156"
         style="opacity:1;fill:url(#linearGradient1060);fill-opacity:1;stroke:#00fed8;stroke-width:0.26458332;stroke-opacity:1" />
      <path
         inkscape:connector-curvature="0"
         d="m 37.154371,249.88766 c -0.910267,1.63647 -2.019872,3.14639 -3.032972,4.7177 -0.881099,1.08748 -1.433803,2.34546 -2.029836,3.59507 -0.345233,1.12136 -1.027922,1.98336 -1.853893,2.78727 -0.693308,0.88438 -1.386882,1.75606 -2.147482,2.58431 -0.608822,1.03029 -1.550681,1.79123 -2.185423,2.79506 -0.517211,0.99089 -1.124139,1.92368 -1.833926,2.78622 -0.635201,0.91922 -1.051221,1.97607 -1.503138,2.99456 -0.646616,1.15961 -1.197632,2.35955 -1.71733,3.58036 -0.494898,1.26114 -0.982228,2.51691 -1.424057,3.79733 -0.447591,1.06995 -1.020379,2.06447 -1.4631,3.13857 -0.07911,0.1715 -0.158217,0.343 -0.237325,0.51448 0,0 -6.807462,3.11274 -6.807462,3.11274 v 0 c 0.07726,-0.17523 0.154529,-0.35044 0.231793,-0.52567 0.283529,-0.52673 0.40554,-1.08167 0.672983,-1.61491 0.0837,-0.16687 0.187587,-0.32285 0.28138,-0.48427 0.103312,-0.14613 0.225651,-0.28054 0.309935,-0.43841 0.09491,-0.17778 0.149272,-0.37436 0.223909,-0.56155 0.560101,-1.22674 0.862903,-2.58453 1.436376,-3.81085 0.487731,-1.24328 1.011586,-2.46642 1.66873,-3.62889 0.583576,-0.98349 0.895976,-2.11551 1.444395,-3.12092 0.646866,-0.88249 1.406059,-1.66976 1.893193,-2.66684 0.514152,-1.18338 1.505651,-1.83918 2.12443,-2.94675 0.691368,-0.89077 1.587276,-1.60851 2.118524,-2.62228 0.729176,-0.8195 1.714744,-1.41639 1.961693,-2.56602 0.577894,-1.28329 1.087491,-2.615 2.024029,-3.69304 0.953314,-1.58461 2.101802,-3.03873 3.028994,-4.63969 0,0 6.81558,-3.08358 6.81558,-3.08358 z"
         id="path160"
         style="opacity:1;fill:url(#linearGradient1062);fill-opacity:1;stroke:#00fed8;stroke-width:0.26458332;stroke-opacity:1" />
      <path
         inkscape:connector-curvature="0"
         d="m 19.532587,281.95129 c 2.104858,0.0305 4.210089,0.0185 6.315093,0.0132 1.670031,-0.005 3.340068,-0.007 5.010105,-0.008 1.360654,-0.004 2.675988,0.41611 4.024849,0.58605 1.30619,0.0743 2.627892,0.28924 3.829916,0.82126 1.111186,0.47993 2.291897,0.68541 3.43399,1.07689 0,0 -6.193039,4.19838 -6.193039,4.19838 v 0 c -1.149128,-0.38211 -2.353567,-0.58055 -3.454866,-1.10477 -1.208603,-0.40042 -2.454155,-0.59185 -3.722068,-0.68384 -1.314196,-0.20164 -2.612414,-0.57875 -3.953366,-0.50959 -1.662662,0 -3.325323,-0.003 -4.987979,-0.008 -2.117262,-0.005 -4.234738,-0.0169 -6.35186,0.0135 0,0 6.049225,-4.39502 6.049225,-4.39502 z"
         id="path162"
         style="opacity:1;fill:url(#linearGradient1064);fill-opacity:1;stroke:#00fed8;stroke-width:0.26458332;stroke-opacity:1" />
      <path
         inkscape:connector-curvature="0"
         d="m 12.94283,286.96846 c -0.936811,-0.21202 -1.80061,-0.64106 -2.680938,-1.01108 0,0 6.182311,-4.1311 6.182311,-4.1311 v 0 c 0.847628,0.34541 1.688866,0.72628 2.608922,0.83391 0,0 -6.110295,4.30827 -6.110295,4.30827 z"
         id="path164"
         style="opacity:1;fill:url(#linearGradient1066);fill-opacity:1;stroke:#00fed8;stroke-width:0.26458332;stroke-opacity:1" />
      <path
         inkscape:connector-curvature="0"
         d="m 22.586931,243.53153 c 2.084697,0.32226 4.190437,0.47007 6.295983,0.56642 1.707745,-0.071 3.358991,0.17926 5.033973,0.45903 1.432459,0.0581 2.686738,0.4953 3.940987,1.14209 0.847392,0.75266 1.898486,1.16097 2.909107,1.63894 1.29127,0.35238 1.998557,1.304 2.280896,2.56545 -0.175297,3.1446 -7.251774,5.43534 -7.809121,5.78038 -1.942799,1.20277 3.964051,-2.27393 5.946073,-3.4109 -23.017377,13.17142 4.153808,-2.35261 -1.401339,0.87696 -2.295678,1.33463 -4.615868,2.62686 -6.909104,3.96568 -1.971701,1.15111 3.959146,-2.27507 5.944473,-3.40252 0.16197,-0.092 -0.316015,0.19727 -0.474022,0.29591 -2.467446,1.75079 -5.122254,2.96351 -7.769831,4.60845 -1.941388,1.20618 3.959585,-2.28419 5.947855,-3.41142 0.313454,-0.17771 -0.603065,0.39453 -0.90342,0.59358 -0.853882,0.63438 -1.703602,1.2713 -2.251401,2.19563 -0.502404,0.97223 -1.201708,1.83264 -1.844971,2.71769 -0.507653,0.97163 -1.163373,1.84944 -1.743922,2.77442 -0.535043,0.95765 -1.184708,1.84002 -1.90606,2.66401 -0.713211,0.86701 -1.211062,1.82944 -1.626216,2.86306 -0.641446,0.91191 -1.150791,1.88581 -1.673241,2.86977 -0.509063,1.08974 -0.681562,2.281 -1.146841,3.39032 -0.57359,1.0037 -1.201807,1.98274 -1.845683,2.94471 -0.791817,0.94879 -1.227368,2.11293 -1.830584,3.17841 -0.407369,0.63061 -0.196465,0.31829 -0.633031,0.93673 0,0 -6.891035,2.93071 -6.891035,2.93071 v 0 c 0.502126,-0.514 0.277054,-0.22794 0.667882,-0.86392 0.766947,-0.99311 1.053521,-2.23353 1.816315,-3.22974 0.751053,-0.85085 1.191024,-1.93373 1.890559,-2.82096 0.664117,-1.03505 0.736023,-2.24779 1.149633,-3.38463 0.481223,-0.99023 0.889617,-2.05642 1.687655,-2.84075 0.274773,-0.53441 0.38764,-1.10032 0.65771,-1.6355 0.434327,-0.86066 0.116017,-0.11792 0.6181,-0.89042 0.105011,-0.16159 0.178962,-0.34134 0.268443,-0.512 0.650072,-0.85278 1.427819,-1.59536 1.964523,-2.53682 0.477111,-1.01283 1.296557,-1.79293 1.713042,-2.84004 0.577955,-0.91801 1.260017,-1.74658 1.894612,-2.61384 0.409755,-1.09114 1.137404,-1.87963 2.111565,-2.51306 1.945108,-1.79073 7.698743,-4.64379 7.736237,-4.66629 1.956475,-1.17372 -3.93296,2.31387 -5.908543,3.45513 -0.316113,0.18262 1.262706,-0.78576 0.862743,-0.67465 2.995096,-1.65291 -2.40842,1.33395 7.356298,-4.26676 1.976424,-1.13361 -3.936064,2.29623 -5.904098,3.44434 0.154802,-0.0971 0.307194,-0.19824 0.464407,-0.29142 2.278735,-1.35074 4.627523,-2.58853 6.843276,-4.04027 1.906966,-1.24943 -3.943821,2.28836 -5.915734,3.43255 2.291876,-1.32751 4.528301,-2.75573 6.875632,-3.98252 2.028042,-1.05992 -3.943842,2.32199 -5.916721,3.48136 -0.292568,0.17193 1.437187,-0.88359 1.26402,-1.0662 -0.06629,-1.13279 -0.922448,-1.59982 -1.90578,-1.94819 -1.004655,-0.49862 -2.032408,-0.94239 -2.914843,-1.65068 -1.198396,-0.59534 -2.463419,-0.83417 -3.79167,-0.96965 -1.647715,-0.27514 -3.292419,-0.39238 -4.96411,-0.40578 -2.129864,-0.12776 -4.254331,-0.32303 -6.370973,-0.59454 0,0 6.110295,-4.30826 6.110295,-4.30826 z"
         id="path166"
         style="opacity:1;fill:url(#linearGradient1068);fill-opacity:1;stroke:#00fed8;stroke-width:0.26458332;stroke-opacity:1" />
      <path
         inkscape:connector-curvature="0"
         d="m 40.062456,250.61085 c -1.38994,1.27699 -2.863921,2.49142 -3.967935,4.03397 -0.12052,0.22545 -0.241038,0.4509 -0.361555,0.67636 0,0 -6.786669,3.0862 -6.786669,3.0862 v 0 c 0.109046,-0.25657 0.218091,-0.51314 0.327136,-0.76971 0.999422,-1.67852 2.500001,-2.847 3.843192,-4.23941 0,0 6.945831,-2.78741 6.945831,-2.78741 z"
         id="path168"
         style="opacity:1;fill:url(#linearGradient1070);fill-opacity:1;stroke:#00fed8;stroke-width:0.26458332;stroke-opacity:1" />
    </g>
    <g
       id="g1056"
       transform="translate(229.05357,49.136905)"
       style="fill:#ffffff">
      <g
         style="fill:#ffffff"
         transform="translate(-231.32143,-51.404765)"
         id="g1009">
        <path
           style="opacity:1;fill:#ffffff;stroke-width:0.26458332"
           id="path142"
           d="m 60.015193,205.17488 c 0.01143,-1.96247 0.339188,-3.9017 0.544611,-5.84887 0.152564,-1.37055 0.571021,-2.672 1.08231,-3.94332 0.370048,-1.13411 0.820607,-2.23146 1.16536,-3.37416 0.335975,-1.13452 0.829429,-2.10333 1.559136,-3.0239 0.567092,-0.97473 0.97681,-2.0659 1.307224,-3.14588 0.405443,-1.16446 0.793216,-2.307 0.98129,-3.52978 0.0397,-1.34657 0.319878,-2.64835 0.583996,-3.96233 0.258964,-1.34343 0.225647,-2.71435 0.488421,-4.05583 0.252425,-1.24836 0.474673,-2.48951 0.832964,-3.71261 0.391009,-1.2872 0.407984,-2.63655 0.554783,-3.96199 0.300075,-1.28123 0.522092,-2.5692 0.636392,-3.88 0.100891,-1.47027 0.101822,-2.94492 0.106664,-4.41791 0.0016,-1.51284 -0.0016,-3.02567 -0.0032,-4.5385 0.02125,-1.50367 -0.05371,-3.0101 0.04735,-4.51119 0.271759,-1.17214 0.897451,-2.18866 1.182953,-3.36395 0.123105,-1.30347 0.418089,-2.56901 0.68749,-3.84687 0.26565,-1.34093 0.230262,-2.71079 0.491853,-4.051 0.180501,-1.23371 0.613005,-2.39569 0.952142,-3.58757 0.396815,-1.16523 0.79815,-2.30128 0.991585,-3.52184 0.176199,-1.22688 0.585959,-2.39092 1.049909,-3.53265 0.468188,-1.20164 0.480076,-2.50219 0.765714,-3.74709 0.253484,-1.20723 0.518568,-2.39376 1.119945,-3.48001 0.577299,-1.01266 0.847788,-2.1598 1.227166,-3.25579 0.380376,-1.33442 0.799293,-2.65041 1.046472,-4.01755 0.122256,-1.34614 0.538737,-2.63382 0.77112,-3.96046 0.290119,-1.20499 0.56605,-2.43057 0.982988,-3.60013 0.491601,-1.19681 0.628232,-2.47717 0.716926,-3.75514 0.01048,-0.24034 0.02513,-0.48053 0.03142,-0.72101 0.0048,-0.18292 0.0041,-0.36598 0.0019,-0.54895 -0.0016,-0.12571 -0.151302,-0.321674 -0.03758,-0.375266 10.236935,-4.824304 10.136166,-8.361214 10.062413,-4.124753 -0.02032,1.409726 -0.0227,2.819633 -0.02519,4.229479 -0.0019,1.52161 -0.0013,3.04322 -0.0013,4.56483 -0.05192,1.32846 0.327919,2.61655 0.519906,3.92184 0.11937,1.26197 0.08225,2.45969 0.680392,3.5961 0.655175,1.19015 0.853303,2.52192 0.980392,3.85384 0.294804,1.24554 0.489572,2.51153 0.751777,3.76334 0.206452,1.29619 0.666774,2.45985 1.313656,3.58782 0.56751,1.25421 1.038651,2.55176 1.561481,3.82671 0.456539,1.43581 0.880928,2.86216 1.511297,4.23276 0.557152,1.18699 1.136539,2.31945 1.448569,3.60219 0.4325,1.18712 0.71632,2.41643 1.07596,3.62588 0.30774,1.36414 0.61675,2.71631 0.9832,4.0664 0.33724,1.29976 0.35192,2.64184 0.66019,3.94581 0.3286,1.25095 0.39679,2.53972 0.72475,3.78928 0.38664,1.33642 0.5096,2.72121 0.58735,4.10376 0.0632,1.50342 0.0588,3.00861 0.0591,4.51305 0.002,1.44537 0.20478,2.91582 0.56881,4.31516 0.4453,1.29273 0.65833,2.64276 1.00077,3.96283 0.40633,1.48568 0.55194,3.01793 0.6386,4.54992 0.0654,1.52037 0.0607,3.04258 0.0606,4.56401 -0.002,1.51245 -0.005,3.0249 -0.006,4.53735 -10e-4,1.51179 -10e-4,3.02359 -10e-4,4.53538 -4e-5,1.51189 -1e-5,3.02378 10e-6,4.53567 1e-5,1.5119 2e-5,3.02381 2e-5,4.53571 0,1.51191 0,3.02381 0,4.53572 -0.0795,1.49233 0.11521,2.96159 0.47497,4.40678 0.48853,1.25071 1.2715,2.30905 2.24166,3.22413 0.14757,0.16208 0.29513,0.32415 0.4427,0.48623 0,0 -9.58876,5.81849 -9.58876,5.81849 v 0 c -0.13716,-0.1487 -0.27432,-0.29739 -0.41147,-0.44609 -1.054288,-1.10229 -1.959007,-2.30822 -2.514571,-3.74387 -0.434584,-1.51446 -0.687753,-3.08582 -0.616588,-4.66466 0,-1.5119 0,-3.0238 0,-4.53571 -3e-6,-1.5119 -3e-6,-3.0238 -1.6e-5,-4.53571 -1.6e-5,-1.5119 -4.5e-5,-3.02381 -3.7e-5,-4.53571 3.7e-5,-1.51205 5.3e-5,-3.02411 0.0011,-4.53616 0.0011,-1.51244 0.0031,-3.02488 0.0062,-4.53732 0.0021,-1.50472 0.0092,-3.00988 -0.03535,-4.51413 -0.0608,-1.45892 -0.158366,-2.92343 -0.53421,-4.34133 -0.35161,-1.31547 -0.583591,-2.6525 -1.002024,-3.94986 -0.420508,-1.47582 -0.63255,-3.05857 -0.697016,-4.58612 0.0011,-1.48661 0.007,-2.97369 -0.03952,-4.45976 -0.05706,-1.3058 -0.137501,-2.61913 -0.494027,-3.88408 -0.345189,-1.25991 -0.453832,-2.53913 -0.735682,-3.81333 -0.324826,-1.30001 -0.389792,-2.61418 -0.645559,-3.92753 -0.347925,-1.34453 -0.696818,-2.67436 -0.955575,-4.03947 -0.374684,-1.23164 -0.678558,-2.47901 -1.123701,-3.68866 -0.253257,-1.22388 -0.821021,-2.27537 -1.329275,-3.40598 -0.625594,-1.38756 -1.103193,-2.81263 -1.520166,-4.27593 -0.505918,-1.22919 -1.009854,-2.45957 -1.519364,-3.68521 -0.693045,-1.22281 -1.214562,-2.48266 -1.451409,-3.8795 -0.332542,-1.28821 -0.451422,-2.62612 -0.829313,-3.90784 -0.08747,-1.18665 -0.203041,-2.38546 -0.789543,-3.44744 -0.695523,-1.32266 -0.802233,-2.46716 -0.848357,-3.94655 -0.178311,-1.35977 -0.593498,-2.69182 -0.57581,-4.06751 1.9e-4,-1.52171 5.29e-4,-3.04343 2.64e-4,-4.56514 -5.29e-4,-1.40377 -8.5e-5,-2.80758 -0.01363,-4.2113 -0.06041,-4.359297 -0.163113,-0.49585 10.064964,-6.067227 0.02159,-0.01177 -0.02747,0.04256 -0.03111,0.06687 -0.01633,0.109003 -0.02148,0.219438 -0.02826,0.329446 -0.01175,0.19054 -0.02072,0.381265 -0.02733,0.57205 -0.0086,0.246912 -0.0122,0.493969 -0.01828,0.740953 -0.05662,1.360805 -0.124193,2.739207 -0.548754,4.044718 -0.427283,1.12239 -0.695629,2.26457 -1.096523,3.40082 -0.171426,1.35278 -0.59232,2.63358 -0.779857,3.97356 -0.192397,1.42062 -0.570119,2.77647 -0.952992,4.15005 -0.321104,1.17612 -0.771438,2.30359 -1.117751,3.47072 -0.608279,1.05909 -1.154215,1.93951 -1.257601,3.21387 -0.350764,1.27273 -0.431687,2.55654 -0.71128,3.84735 -0.363273,1.12248 -0.923573,2.15083 -1.171829,3.31704 -0.126582,1.25331 -0.30798,2.51049 -0.928314,3.62969 -0.252804,1.22272 -0.797375,2.32892 -0.962634,3.56908 -0.338018,1.32748 -0.374245,2.65456 -0.511426,4.01715 -0.214638,1.29588 -0.669139,2.52929 -0.683697,3.85337 -0.180504,1.1912 -0.452747,2.34109 -1.215834,3.30869 -0.312624,1.42927 -0.04286,2.92862 -0.130331,4.38256 0.0013,1.51371 0.0038,3.02742 0.005,4.54114 -7.93e-4,1.49474 0.0027,2.99027 -0.06293,4.48391 -0.07763,1.3408 -0.194279,2.6852 -0.574948,3.98009 -0.342148,1.31744 -0.131794,2.72663 -0.504409,4.05025 -0.31228,1.22589 -0.729181,2.39744 -0.858266,3.66759 -0.338971,1.32663 -0.376812,2.65297 -0.511929,4.01524 -0.212744,1.31079 -0.658453,2.5667 -0.615871,3.90926 -0.123248,1.25784 -0.298871,2.52131 -0.911352,3.64917 -0.249515,1.21621 -0.771432,2.3022 -1.137724,3.47965 -0.556469,1.01901 -1.489567,1.55379 -1.66297,2.8111 -0.27664,0.56132 -0.347395,1.12332 -0.555694,1.71002 -0.06452,0.18172 -0.146994,0.35655 -0.22049,0.53482 -0.08362,0.16052 -0.189381,0.31133 -0.250868,0.48156 -0.07337,0.20314 -0.100465,0.42013 -0.150698,0.63019 -0.414825,1.24697 -1.040511,2.39966 -1.253818,3.71863 -0.194911,1.90539 -0.597184,3.80581 -0.551032,5.72245 0,0 -9.993421,5.0919 -9.993421,5.0919 z"
           inkscape:connector-curvature="0" />
        <path
           style="opacity:1;fill:#ffffff;stroke-width:0.26458332"
           id="path144"
           d="m 77.759514,164.76104 c 1.705462,0.63063 3.362616,1.31766 5.152938,1.68238 1.311034,0.32014 2.388594,1.12799 3.679041,1.49264 1.303282,0.19864 2.577317,0.27201 3.856863,0.59856 1.296676,0.31771 2.63371,0.37599 3.961948,0.42133 1.43964,-0.0533 2.933012,0.22474 4.340286,-0.12773 1.240266,-0.45616 2.61125,-0.28917 3.84129,-0.71994 0.76267,-0.23268 0.41754,-0.0613 1.04241,-0.49988 0,0 -8.785595,6.99217 -8.785595,6.99217 v 0 c -0.771335,0.21837 -0.378796,0.11588 -1.177933,0.30625 -1.307889,0.16829 -2.601074,0.39757 -3.898056,0.63139 -1.48381,0.0506 -2.969982,0.0132 -4.453231,-0.0429 -1.378776,-0.0831 -2.75422,-0.22297 -4.09411,-0.57647 -1.301774,-0.27165 -2.658091,-0.23305 -3.92277,-0.68892 -1.197629,-0.47018 -2.299182,-1.16852 -3.576736,-1.4298 -1.791935,-0.47262 -3.476966,-1.22921 -5.257419,-1.73518 0,0 9.291074,-6.3039 9.291074,-6.3039 z"
           inkscape:connector-curvature="0" />
        <path
           style="opacity:1;fill:#ffffff;stroke-width:0.26458332"
           id="path146"
           d="m 118.97948,208.95464 c 0.0688,-2.11546 0.0422,-4.23276 0.0304,-6.34895 -0.0106,-1.66323 -0.0157,-3.32648 -0.0183,-4.98973 -0.002,-1.51203 -0.002,-3.02406 -0.002,-4.5361 7e-5,-1.50955 1.4e-4,-3.01909 1.8e-4,-4.52864 -0.009,-1.41371 0.0848,-2.82278 -0.17434,-4.21798 -0.15105,-1.23115 -0.6306,-2.37208 -0.93659,-3.56516 -0.20768,-1.42211 -0.55222,-2.8174 -0.80768,-4.23107 -0.25429,-1.52091 -0.30604,-3.06391 -0.33966,-4.60235 -0.0223,-1.51659 -0.0165,-3.03341 -0.0144,-4.55012 0.003,-1.51186 0.004,-3.02372 0.004,-4.53559 5.3e-4,-1.51182 5.3e-4,-3.02365 5.3e-4,-4.53548 -1e-5,-1.5119 -3e-5,-3.0238 -4e-5,-4.5357 0,-1.51191 0,-3.02381 0,-4.53571 -1e-5,-1.51191 -1e-5,-3.02382 -1e-5,-4.53572 1e-5,-1.51191 1e-5,-3.02381 1e-5,-4.53571 0,-1.51191 0,-3.02381 0,-4.53572 0,-1.5119 0,-3.02381 0,-4.53571 0,-1.51191 0,-3.02381 0,-4.53572 -0.058,-1.44845 -0.001,-2.86753 0.28263,-4.28844 0.2961,-1.33679 0.3827,-2.70332 0.43802,-4.06728 0.0447,-1.4963 0.0406,-2.99349 0.0404,-4.49029 -0.002,-1.51332 -0.003,-3.02663 -0.004,-4.53994 -7.9e-4,-1.51223 -7.9e-4,-3.02446 -7.9e-4,-4.53669 -2e-5,-1.00794 -1e-5,-2.01587 0,-3.02381 0,0 9.97206,-5.081013 9.97206,-5.081013 v 0 c -1e-5,1.00793 -2e-5,2.015857 -2e-5,3.023788 2e-5,1.512065 2e-5,3.024135 5.3e-4,4.536205 7.9e-4,1.51329 0.002,3.02657 0.004,4.53986 0.002,1.50714 0.007,3.01443 -0.0193,4.52141 -0.0353,1.41339 -0.0812,2.833 -0.33926,4.22687 -0.27992,1.36806 -0.55191,2.68489 -0.40204,4.09831 0,1.51191 0,3.02382 0,4.53572 0,1.51191 0,3.02381 0,4.53571 0,1.51191 0,3.02381 0,4.53572 0,1.5119 0,3.02381 0,4.53571 0,1.51191 0,3.02381 0,4.53572 0,1.5119 1e-5,3.0238 1e-5,4.53571 1e-5,1.5119 3e-5,3.0238 4e-5,4.53571 1e-5,1.51195 5e-5,3.0239 -2.6e-4,4.53585 -5.3e-4,1.51225 -0.001,3.0245 -0.004,4.53675 -0.002,1.51028 -0.008,3.0206 0.004,4.53084 0.0207,1.48569 0.0474,2.97628 0.26116,4.44941 0.23039,1.39303 0.62649,2.74793 0.79269,4.15073 0.28506,1.21785 0.81053,2.36129 0.95773,3.61211 0.30585,1.4656 0.28925,2.92766 0.25615,4.42201 4e-5,1.50949 1.1e-4,3.01898 1.8e-4,4.52846 2e-5,1.51259 1.7e-4,3.02518 -0.002,4.53776 -0.003,1.66946 -0.008,3.33892 -0.0183,5.00836 -0.0117,2.10586 -0.039,4.21289 0.0304,6.318 0,0 -9.99342,5.0919 -9.99342,5.0919 z"
           inkscape:connector-curvature="0" />
        <path
           style="opacity:1;fill:#ffffff;stroke-width:0.26458332"
           id="path148"
           d="m 130.61026,154.4544 c 2.04817,-0.19334 4.07473,-0.34369 6.07917,-0.80927 0.94471,-0.20059 1.93171,-0.30712 2.7988,-0.7697 0.33771,-0.18017 0.62556,-0.44314 0.95703,-0.63455 1.04613,-0.44638 2.21589,-0.73113 3.16729,-1.36469 0.49487,-0.3679 1.13023,-0.35719 1.68055,-0.55768 0.55698,-0.20292 1.03287,-0.48829 1.61695,-0.65386 3.34686,-1.91494 7.68943,-4.31091 -8.18482,4.70098 -0.14363,0.0815 0.28744,-0.16627 0.41359,-0.27288 0.27994,-0.23658 0.50731,-0.52916 0.76409,-0.79069 0.81576,-0.68952 1.65576,-1.35513 2.41399,-2.10894 0.80692,-0.67452 1.44323,-1.55788 1.8829,-2.50983 0.18463,-1.18549 0.86072,-2.12069 1.39135,-3.15612 0.50832,-1.22177 0.54858,-2.55941 0.59924,-3.86309 0.0373,-1.50249 0.0264,-3.00565 0.0225,-4.50844 -0.005,-1.51456 -0.007,-3.02913 -0.008,-4.5437 -8e-4,-1.51221 -8e-4,-3.02443 -8e-4,-4.53664 2e-5,-1.51188 5e-5,-3.02376 7e-5,-4.53564 1e-5,-1.5119 1e-5,-3.0238 2e-5,-4.5357 0.063,-1.23901 -0.22012,-2.43466 -0.67692,-3.57506 -0.2644,-1.08731 -0.91283,-1.78666 -1.68509,-2.52048 -0.6929,-1.01102 -1.58425,-1.84747 -2.38531,-2.76571 -0.86262,-0.66121 -1.72334,-1.33971 -2.61319,-1.97027 -0.14914,-0.0723 -0.3058,-0.13086 -0.44744,-0.21696 -0.68245,-0.41489 -0.2507,-0.2762 -0.93163,-0.60775 -0.5126,-0.24958 -1.04477,-0.34997 -1.55989,-0.60554 -0.69083,-0.40646 -1.53031,-0.35487 -2.21675,-0.76294 -0.34867,-0.20727 -0.64792,-0.48835 -0.97842,-0.72351 -1.02465,-0.61258 -2.23337,-0.66252 -3.3944,-0.72981 -1.47459,-0.057 -2.95078,-0.0441 -4.42615,-0.0398 -1.51532,0.006 -3.03065,0.009 -4.54599,0.0102 0,0 9.05341,-6.579522 9.05341,-6.579522 v 0 c 1.51532,-0.0024 3.03063,-0.007 4.54594,-0.01027 1.49789,1.48e-4 2.99871,-0.01013 4.49276,0.11276 1.32836,0.150775 2.64012,0.394679 3.74761,1.199097 0.94365,0.644827 2.04447,0.829435 3.0737,1.310225 1.09617,0.4245 2.11865,0.94602 3.07712,1.63413 0.91992,0.70987 1.90605,1.3493 2.72706,2.17447 0.79337,0.88075 1.61531,1.73526 2.34353,2.67251 0.88653,0.82824 1.58014,1.75694 1.92289,2.94298 0.51267,1.26259 0.89715,2.59193 0.84921,3.97024 0,1.5119 0,3.0238 -1e-5,4.5357 -1e-5,1.51188 -3e-5,3.02376 -7e-5,4.53564 -2e-5,1.51202 -1e-4,3.02404 5.3e-4,4.53606 8e-4,1.51391 0.002,3.02783 0.006,4.54173 0.004,1.51272 0.0142,3.02554 -0.002,4.53822 -0.0278,1.41007 -0.0494,2.83694 -0.39679,4.2123 -0.42363,1.3048 -1.2365,1.81124 -1.41697,3.10698 -0.3063,1.1548 -0.90197,2.11272 -1.6401,3.03864 -0.86031,0.64277 -1.55763,1.48183 -2.39725,2.15146 -0.41023,0.24711 -0.51707,0.26192 -0.82229,0.64679 -0.12372,0.15601 -0.1529,0.39877 -0.3228,0.50259 -2.40559,1.47012 -7.23835,4.87572 -11.13169,6.28877 -1.0746,0.43693 -2.18863,0.76968 -3.20465,1.34017 -1.07096,0.40269 -2.1243,0.87433 -3.14174,1.3934 -1.21874,0.64642 -2.57549,0.84238 -3.91744,1.10069 -2.03869,0.36732 -4.11683,0.4171 -6.15729,0.78218 0,0 8.97838,-6.71986 8.97838,-6.71986 z"
           inkscape:connector-curvature="0" />
        <path
           style="opacity:1;fill:#ffffff;stroke-width:0.26458332"
           id="path150"
           d="m 155.37587,145.47988 c -0.48619,1.85733 -0.84188,3.74938 -1.39127,5.58953 -0.47225,1.18347 -0.91941,2.43438 -1.77703,3.39686 -0.74207,0.76994 -1.53286,1.50321 -2.34909,2.19594 -3.18618,3.07969 -8.98575,5.56213 -11.82681,7.17914 -3.05649,1.73963 6.10344,-3.49598 9.15515,-5.24397 -5.85723,5.4796 -7.92059,4.91313 -13.00595,6.667 0.73308,-0.0807 -2.19332,1.21724 -1.47921,0.80105 22.04877,-12.85027 1.4558,-0.24493 -1.48073,0.78723 -1.14903,0.27504 -2.39489,0.50267 -3.4187,1.11621 -1.15931,0.58703 -2.46825,0.66684 -3.74208,0.74374 -0.96786,0.0355 -0.48169,0.0215 -1.45852,0.0417 0,0 9.03443,-6.61453 9.03443,-6.61453 v 0 c 0.95767,-0.0506 0.48231,-0.0179 1.42613,-0.0974 1.24105,-0.16026 2.42688,-0.45496 3.54172,-1.04389 1.14592,-0.34936 2.30103,-0.68797 3.41422,-1.12233 4.31796,-2.407 -13.52148,7.53402 -8.63278,5.0013 3.45298,-1.78891 7.59221,-4.87302 11.65527,-6.50222 0.58062,-0.19238 1.18363,-0.29903 1.75847,-0.50679 3.34854,-1.21022 9.7012,-7.72757 -8.08877,4.77906 32.30399,-18.61345 -7.79031,4.71746 2.77249,-1.67456 0.67668,-0.82114 1.55488,-1.48023 2.37136,-2.15072 0.1223,-0.1361 0.2446,-0.27219 0.3669,-0.40829 0.14067,-0.10443 0.30017,-0.1874 0.422,-0.31329 0.60254,-0.62264 0.65783,-1.60825 1.23117,-2.26267 0.59024,-1.77793 0.96812,-3.59471 1.43809,-5.40903 0,0 10.06354,-4.94904 10.06354,-4.94904 z"
           inkscape:connector-curvature="0" />
      </g>
      <path
         inkscape:connector-curvature="0"
         d="m -100.08597,43.139269 c 1.781933,0.02958 3.498222,-0.04953 5.210605,0.497703 0.291307,0.09305 0.590757,0.163655 0.873914,0.279146 0.518631,0.211532 0.993333,0.519287 1.504219,0.748898 0.644568,0.289689 1.289011,0.453927 1.920817,0.775613 1.178129,0.347165 2.14511,1.032631 3.161123,1.685808 1.019958,0.401283 1.745271,1.261552 2.733863,1.714407 0.976632,0.572159 1.774187,1.365335 2.661721,2.053421 0.948576,0.535189 1.85583,1.19711 2.632438,1.966111 0.769384,0.801722 1.746795,1.296292 2.475402,2.133692 0.767789,0.918753 1.550553,1.85215 2.444652,2.653142 0.84057,0.94394 1.532831,1.988441 1.974942,3.174235 0.292643,1.135761 0.669348,2.246225 1.141913,3.318642 0.406355,1.179357 0.727937,2.385182 1.083516,3.582707 0.358831,1.282785 0.365789,2.616409 0.669351,3.908878 0.36285,1.357878 0.487741,2.756529 0.56506,4.154627 -0.126198,1.235223 0.543264,2.172055 0.964419,3.270057 0.460484,1.37609 0.529807,2.831597 0.583912,4.269161 0.07655,1.457359 0.05394,2.892377 -0.233283,4.32386 -0.223419,1.387557 -0.977514,2.51234 -1.886781,3.547049 -0.944501,1.037429 -1.697117,2.228136 -2.622695,3.279312 -0.643832,0.919197 -1.56785,1.592395 -2.174068,2.533721 -0.598247,0.915083 -1.330108,1.720197 -2.002343,2.577659 -0.768863,0.940512 -1.741673,1.638912 -2.672268,2.401952 -4.423746,2.57263 -8.818173,5.19635 -13.27124,7.71788 -0.19335,0.10949 -0.440873,0.0784 -0.64637,0.16293 -0.184957,0.0761 -0.333652,0.22214 -0.511651,0.3133 -0.179115,0.0917 -0.730798,0.33458 -0.556609,0.23381 14.046729,-8.12657 16.238857,-9.52987 11.836881,-6.73287 -4.601334,3.3098 -9.41765,5.49219 -14.684523,8.47579 -1.087739,0.61619 0.189955,0.0275 -0.985451,0.53455 25.593746,-10.71178 15.409251,-9.29466 11.422782,-6.50966 -0.46551,0.32521 -0.821306,0.69593 -1.326015,0.9729 -4.899054,3.66618 -10.203963,6.1928 -15.691643,9.32896 0.3785,-0.50416 -1.63028,0.69304 -1.24479,0.47299 4.06586,-2.32089 16.286733,-9.2424 12.200773,-6.95709 -4.591363,2.568 -8.961073,8.92788 -14.341173,7.35686 -1.26507,-0.78799 -1.53788,-2.18612 -1.70577,-3.56002 -0.11772,-1.46383 -0.24574,-2.93066 0.29215,-4.32112 3.40957,-4.61403 0.35216,-0.62187 13.741369,-8.04568 0.497454,-0.27582 0.781201,-0.18292 1.307269,-0.39598 0.410022,-0.16605 0.778777,-0.42205 1.184069,-0.59934 0.214966,-0.0664 0.441433,-0.10314 0.644895,-0.19916 0.185026,-0.0873 0.330507,-0.242663 0.507773,-0.344813 0.754747,-0.43493 1.595104,-0.557922 2.443675,-0.6691 1.545315,-0.213116 2.725656,0.387302 3.589343,1.636343 0.661874,1.32126 0.819454,2.80959 0.652418,4.26244 -0.135523,0.88558 -0.436986,1.72315 -1.253173,2.19328 -13.299646,7.66078 -8.398914,6.41633 -14.075201,7.77796 -1.399807,0.11183 -2.659817,0.67747 -4.043627,0.89189 -1.6625,0.21636 -2.75195,0.36834 -4.01686,-0.88127 0,0 12.658925,-7.92661 12.658925,-7.92661 v 0 c 0.968139,0.46591 2.220592,-0.0724 3.219576,-0.18577 1.307169,-0.34339 2.623355,-0.64165 3.910952,-1.04247 4.865992,-2.33893 0.231558,-0.13059 -11.549528,6.74186 -0.172881,0.10085 0.354544,-0.18845 0.54234,-0.25767 0.525817,-0.1938 0.949476,-0.19948 1.217978,-0.77697 0.262689,-1.07523 0.362244,-2.14397 -0.113668,-3.19106 -0.627327,-0.75161 -1.767792,-0.41497 -2.594255,-0.23147 -1.18415,0.37644 -2.24774,1.01539 -3.41417,1.43918 -0.6323,0.27453 -1.2805,0.46751 -1.92331,0.71565 -0.20926,0.0808 -0.81903,0.36129 -0.62581,0.24737 12.112476,-7.14145 16.916077,-7.9982 11.723774,-7.00561 -1.295053,0.60997 -0.867484,2.06989 -0.83662,3.26956 0.03633,0.40887 -0.03864,1.94657 0.662826,1.6986 0.205851,-0.081 0.764934,-0.44475 0.572887,-0.33497 -4.099161,2.34313 -16.476827,9.22131 -12.270977,7.07556 5.61942,-2.86694 9.387389,-5.97375 14.569288,-8.14061 -4.054843,2.35032 -8.109683,4.70063 -12.164528,7.05095 0.50493,-0.25749 1.03836,-0.57006 1.47349,-0.93777 0.14534,-0.12283 0.23779,-0.30185 0.38777,-0.41899 0.14202,-0.11091 0.31749,-0.17054 0.47623,-0.25581 0.43671,-0.38765 0.93757,-0.48512 1.36535,-0.86899 4.144077,-3.71859 7.093408,-4.55278 14.088994,-8.37434 4.694203,-2.4896 6.68972,-3.872247 -11.255915,6.60212 -0.368011,0.2148 0.545397,-0.13955 0.952538,-0.49974 0.145901,-0.12908 0.259482,-0.29062 0.389223,-0.43593 0.161676,-0.0934 0.323217,-0.18694 0.485026,-0.28007 4.423137,-2.54572 8.840864,-5.10086 13.269804,-7.63646 0.900649,-0.51563 0.151005,-0.0272 1.101733,-0.48292 0.185695,-0.089 0.711602,-0.41486 0.533778,-0.31101 -4.05996,2.37092 -8.120123,4.7415 -12.180186,7.11226 2.000192,-1.23137 -0.982689,0.65243 0.995042,-0.76185 0.607454,-0.43439 1.352847,-0.71109 1.737956,-1.40566 0.8353,-0.62599 1.50197,-1.53637 2.086144,-2.38688 0.720645,-0.79816 -5.29e-4,0.0768 0.610481,-0.94683 0.383281,-0.64202 1.08335,-1.08111 1.576271,-1.62955 0.828969,-1.143914 1.855208,-2.138575 2.639843,-3.324808 0.756044,-0.949407 1.715463,-1.705372 2.167443,-2.865829 0.280466,-1.348365 0.603673,-2.628117 0.416322,-4.027834 -0.03204,-1.278647 -0.05034,-2.577836 -0.400897,-3.817464 -0.443016,-1.229879 -1.27748,-2.318507 -1.13947,-3.697486 -0.05396,-1.305933 -0.131022,-2.618179 -0.463077,-3.888719 -0.319632,-1.27544 -0.392144,-2.561524 -0.643413,-3.849529 -0.320744,-1.140322 -0.675953,-2.265092 -0.998583,-3.402142 -0.487431,-1.104648 -0.917898,-2.241886 -1.189207,-3.420052 -0.322492,-0.979553 -0.932701,-1.820161 -1.628732,-2.573813 -0.86187,-0.876885 -1.681253,-1.794571 -2.500712,-2.710831 -0.763141,-0.723694 -1.692836,-1.269227 -2.419618,-2.042808 -0.817887,-0.689954 -1.705035,-1.280724 -2.583658,-1.889194 -0.790229,-0.676727 -1.603603,-1.324988 -2.514966,-1.8351 -0.933836,-0.598373 -1.806286,-1.291219 -2.795478,-1.804582 -0.941456,-0.634844 -1.970396,-1.070277 -3.010516,-1.518558 -1.35073,-0.551603 -2.63946,-1.269651 -4.06236,-1.617403 -1.69724,-0.2705 -3.42194,-0.1505 -5.13444,-0.113639 0,0 12.10238,-8.79289 12.10238,-8.79289 z"
         id="path1027"
         style="opacity:1;fill:#ffffff;stroke:#00fed8;stroke-width:0.26458332;stroke-opacity:1" />
      <path
         inkscape:connector-curvature="0"
         d="m -146.19907,114.95474 c 1.72858,0.0727 3.45945,0.0414 5.18908,0.0537 1.76551,-0.15189 3.44973,0.10436 5.17304,0.42466 1.41648,0.0648 2.7416,0.47984 4.12165,0.74888 1.4938,0.18144 2.95036,0.26469 4.40867,0.63901 1.10324,0.46375 2.08629,1.16912 3.20285,1.58938 1.32395,0.73579 1.77798,2.085 2.04589,3.48629 0.20282,1.49417 0.18393,3.00666 0.18352,4.51121 -0.006,1.51782 -0.0133,3.03563 -0.0172,4.55346 -0.0284,1.48326 0.0849,2.9721 -0.1366,4.44334 -0.30518,1.30087 -0.46447,2.62194 -0.55183,3.95304 -0.0752,1.48243 -0.0739,2.96733 -0.0764,4.45124 -10e-5,1.51309 0.002,3.02618 0.004,4.53927 -0.12629,1.35025 0.17385,2.64361 0.4132,3.95871 0.0859,0.19459 0.74819,2.81426 0.96718,2.04862 -4.37882,2.2396 -8.75763,4.47919 -13.13645,6.71879 0,0 14.04348,-5.40543 14.04348,-5.40543 v 0 c -4.49458,2.30784 -8.98915,4.61569 -13.48373,6.92353 -0.83226,-0.94778 -1.16481,-2.11054 -1.53654,-3.29642 -0.2368,-1.39837 -0.63874,-2.76927 -0.49975,-4.20425 -7.9e-4,-1.51355 -0.003,-3.02711 -0.005,-4.54066 -0.001,-1.50387 -0.006,-3.00805 0.032,-4.51156 0.049,-1.3856 0.11367,-2.77953 0.43166,-4.13466 0.37033,-1.47391 0.33165,-2.68767 0.30052,-4.20426 0.003,-1.51754 0.009,-3.03507 0.0174,-4.5526 0.005,-1.42474 0.0269,-2.85353 -0.10044,-4.27407 -0.13552,-0.98792 -0.29042,-1.8285 -1.32049,-2.21024 -0.98219,-0.49881 -1.94493,-1.07819 -3.01557,-1.36816 -1.44164,-0.29224 -2.93027,-0.27388 -4.36429,-0.62848 -1.36435,-0.29739 -2.7359,-0.49232 -4.11437,-0.71308 -1.6371,-0.29578 -3.27956,-0.29784 -4.94106,-0.26 -1.7789,0.0124 -3.55885,-0.0174 -5.33681,0.0537 0,0 12.10237,-8.79289 12.10237,-8.79289 z"
         id="path1029"
         style="opacity:1;fill:#ffffff;stroke:#00fed8;stroke-width:0.26458332;stroke-opacity:1" />
      <path
         inkscape:connector-curvature="0"
         d="m -135.4546,47.615945 c -0.12606,1.917867 -0.0958,3.841314 -0.0817,5.761956 -0.003,1.395942 0.19823,2.820911 0.58931,4.162777 0.49637,1.253548 0.7182,2.571861 0.8498,3.905864 0.29946,1.188145 0.45608,2.412796 0.75357,3.599672 0.42234,1.251976 0.59966,2.561719 0.91821,3.840017 0.40152,1.498491 0.55403,3.040956 0.64455,4.584374 0.18564,1.187278 0.41515,2.369039 0.80773,3.505816 0.47676,1.317956 0.61568,2.711017 0.70495,4.099164 0.0142,1.313822 0.38751,2.583023 0.57926,3.876828 -0.002,1.2016 0.5465,2.198304 1.00937,3.261175 0.5426,1.306941 0.57347,2.72529 0.74998,4.107069 0.31639,1.510284 0.52463,3.034826 0.64276,4.572436 0.25748,1.296104 0.54626,2.578071 0.6993,3.892837 0.0285,1.47751 0.32635,2.91787 0.5631,4.37018 0.37656,1.51056 0.72518,3.01846 0.92155,4.56423 0.1651,1.53025 0.17818,3.07094 0.18944,4.60832 0.0686,0.82637 0.26536,1.63506 0.41198,2.44987 0,0 -13.14763,6.98635 -13.14763,6.98635 v 0 c -0.15017,-0.89906 -0.35886,-1.78581 -0.4944,-2.68731 -0.003,-1.48959 -0.001,-2.98133 -0.1145,-4.46755 -0.14876,-1.5323 -0.43885,-3.03528 -0.89274,-4.50871 -0.21777,-1.47597 -0.61668,-2.92318 -0.61925,-4.42287 -0.12598,-1.34001 -0.39349,-2.64671 -0.70401,-3.95542 -0.0832,-1.49186 -0.23311,-2.97929 -0.58111,-4.436078 -0.25378,-1.249793 -0.18283,-2.554483 -0.62829,-3.766968 -0.50159,-1.179782 -1.16611,-2.301335 -1.17155,-3.629321 -0.17141,-1.339699 -0.57858,-2.641989 -0.62101,-3.992102 -0.059,-1.25182 -0.13277,-2.517262 -0.54701,-3.711797 -0.44762,-1.273117 -0.71391,-2.580511 -0.95791,-3.908515 -0.0569,-1.44848 -0.14667,-2.903244 -0.51383,-4.31242 -0.33652,-1.26587 -0.55568,-2.549059 -0.9409,-3.801536 -0.36752,-1.259988 -0.45899,-2.590961 -0.85436,-3.8501 -0.0929,-1.234633 -0.25098,-2.460122 -0.72471,-3.616008 -0.47032,-1.471263 -0.68204,-3.072614 -0.68718,-4.612097 0.0138,-1.892829 0.047,-3.788849 -0.0817,-5.678728 0,0 13.32889,-6.791405 13.32889,-6.791405 z"
         id="path1031"
         style="opacity:1;fill:#ffffff;stroke:#00fed8;stroke-width:0.26458332;stroke-opacity:1" />
      <path
         inkscape:connector-curvature="0"
         d="m -140.77239,53.796461 c -0.45813,1.662494 -0.54388,3.390548 -0.73099,5.095809 -0.20803,1.469091 -0.69657,2.868377 -1.12929,4.280368 -0.64042,1.356548 -0.9107,2.818519 -1.07044,4.297291 -0.0123,1.381609 -0.38666,2.710622 -0.61422,4.062929 -0.15597,1.36911 -0.20183,2.727602 -0.53092,4.069916 -0.55545,1.07415 -0.90513,2.180571 -1.08283,3.373419 -0.047,1.324168 -0.42681,2.593059 -0.65205,3.890205 -0.25382,1.708306 -0.27657,3.438972 -0.29026,5.162537 0.10403,1.878092 -0.24617,3.662945 -0.96102,5.388729 -0.68318,1.372021 -0.96615,2.853693 -1.20157,4.351467 -0.27656,1.373738 -0.78453,2.680229 -1.1546,4.027629 -0.26712,1.79009 -0.43816,3.55432 -0.92762,5.30332 -0.52953,1.65677 -1.14024,3.28303 -1.80875,4.88763 -0.56254,1.28608 -0.9146,2.64728 -1.40269,3.95827 -0.45304,1.54375 -0.92329,3.06677 -1.49055,4.57618 -0.61272,1.45628 -1.12592,2.92671 -1.39596,4.48483 -0.20698,1.47273 -0.21147,2.96317 -0.22092,4.44731 -0.0509,1.34449 -0.37588,2.66166 -0.59196,3.98757 -0.31018,1.29705 -0.82923,2.52706 -1.1974,3.80578 -0.21715,1.33574 -0.52626,2.64377 -0.83743,3.9599 -0.23382,1.31104 -0.31813,2.62681 -0.62911,3.92412 -0.20331,0.88406 -0.38433,1.78347 -0.35493,2.69444 0,0 -13.46055,6.65514 -13.46055,6.65514 v 0 c 0.2555,-0.94154 0.17332,-1.93592 0.39425,-2.88651 0.28278,-1.30079 0.65416,-2.54179 0.65375,-3.89273 0.22986,-1.36298 0.7545,-2.63422 0.83282,-4.02231 0.26529,-1.31951 0.7469,-2.54625 1.1478,-3.82411 0.47169,-1.15293 0.35077,-2.48659 0.80717,-3.66302 5.3e-4,-1.5451 -0.006,-3.0934 0.13261,-4.63375 0.19108,-1.64779 0.53282,-3.26734 1.29083,-4.75924 0.50699,-1.52582 1.2728,-2.94708 1.40904,-4.57801 0.15007,-0.38521 0.36568,-0.74416 0.49831,-1.13572 0.31609,-0.93321 0.41383,-1.95255 0.98275,-2.79776 0.22251,-0.81938 0.58513,-1.42853 0.90473,-2.20014 0.35906,-0.86689 0.54257,-1.81417 0.98721,-2.65042 0.50535,-1.71088 0.88102,-3.38069 0.92613,-5.17738 0.20493,-1.40456 0.72718,-2.68693 1.09389,-4.04988 0.50501,-1.49439 0.36833,-3.18271 1.14779,-4.613807 0.71609,-1.568601 1.40364,-3.083949 1.25418,-4.869151 0.0136,-1.763578 -0.0233,-3.531637 0.10774,-5.291278 0.14642,-1.310402 0.5382,-2.555626 0.67757,-3.851428 0.0959,-1.284002 0.20062,-2.611422 0.86025,-3.749667 0.77251,-1.091491 0.61555,-2.454585 0.73077,-3.730062 0.15262,-1.360966 0.56491,-2.658829 0.67975,-4.011924 0.11061,-1.588537 0.28822,-3.182729 0.84505,-4.686864 0.66655,-1.230614 0.91265,-2.679295 1.30336,-4.015634 0.43219,-1.644362 0.32328,-3.392442 0.61082,-5.068382 0,0 13.45749,-6.525612 13.45749,-6.525612 z"
         id="path1033"
         style="opacity:1;fill:#ffffff;stroke:#00fed8;stroke-width:0.26458332;stroke-opacity:1" />
      <path
         inkscape:connector-curvature="0"
         d="m -136.96651,42.324279 c -0.0938,1.77111 -0.0264,3.537204 -0.23699,5.300834 -0.16142,1.673262 -0.55471,3.300955 -0.9092,4.938834 -0.2986,1.428144 -0.36076,2.887642 -0.40084,4.341403 -0.0156,0.994074 -0.01,0.496363 -0.0177,1.493131 0,0 -13.23768,6.736781 -13.23768,6.736781 v 0 c 0.002,-1.008552 -1.8e-4,-0.504185 0.006,-1.513102 0.0205,-1.529244 0.0476,-3.064613 0.28881,-4.578363 0.30114,-1.640867 0.86417,-3.212182 0.98512,-4.883904 0.27833,-1.676101 0.35408,-3.345963 0.1935,-5.04421 0,0 13.32889,-6.791404 13.32889,-6.791404 z"
         id="path1035"
         style="opacity:1;fill:#ffffff;stroke:#00fed8;stroke-width:0.26458332;stroke-opacity:1" />
      <path
         inkscape:connector-curvature="0"
         d="m -148.46692,114.19879 c 1.7212,0.11435 3.45036,-0.0793 5.15521,0.19684 1.59101,0.31412 3.20238,0.46988 4.82008,0.54772 1.47577,-0.11543 2.85096,0.20861 4.27795,0.50129 1.33841,0.23763 2.70108,0.26461 4.0565,0.29089 0.72988,-0.0776 1.4142,0.16653 2.11117,0.33669 0,0 -12.22406,8.50745 -12.22406,8.50745 v 0 c -0.64386,-0.10582 -1.28254,-0.15912 -1.93714,-0.14758 -1.41935,-0.0622 -2.8406,-0.16223 -4.2298,-0.47964 -1.36489,-0.28086 -2.73507,-0.29802 -4.12473,-0.36352 -1.61512,-0.13995 -3.2118,-0.39853 -4.81774,-0.61323 -1.7287,-0.0642 -3.46111,-0.0379 -5.18982,0.016 0,0 12.10238,-8.79289 12.10238,-8.79289 z"
         id="path1037"
         style="opacity:1;fill:#ffffff;stroke:#00fed8;stroke-width:0.26458332;stroke-opacity:1" />
      <path
         inkscape:connector-curvature="0"
         d="m -101.49882,41.07094 c -0.67685,1.544253 -1.05881,3.194999 -1.57716,4.797025 -0.4542,1.375386 -0.57631,2.816196 -0.6473,4.252949 -0.051,1.495521 -0.041,2.992263 -0.038,4.488403 0.004,1.512392 0.007,3.024788 0.008,4.537186 0.001,1.512181 0.001,3.024359 0.001,4.53654 0,1.511914 -4e-5,3.023831 -6e-5,4.535744 -0.17661,1.24595 0.48049,2.177923 0.90451,3.283895 0.28649,1.238573 0.70676,2.440239 0.99552,3.678584 0.29159,1.436661 0.32957,2.906199 0.36106,4.366755 0.0209,1.513996 0.0143,3.028203 0.0118,4.542295 -0.003,1.513033 -0.004,3.026071 -0.005,4.539107 -5.3e-4,1.511943 -5.3e-4,3.023886 -5.3e-4,4.535828 10e-6,1.51189 3e-5,3.02378 4e-5,4.53567 10e-6,1.511904 10e-6,3.023809 10e-6,4.535709 0,1.5119 0,3.02381 0,4.53572 0,1.5119 0,3.02381 0,4.53571 0,1.5119 0,3.02381 0,4.53571 0,1.51191 0,3.02381 0,4.53572 0,1.5119 0,3.02381 0,4.53571 0,1.51191 0,3.02381 0,4.53572 0,1.5119 0,3.0238 0,4.53571 0,1.51191 0,3.02381 0,4.53572 0,1.5119 0,3.0238 0,4.53571 0,1.5119 0,3.02381 0,4.53571 0,1.51191 0,3.02381 0,4.53572 -0.0404,0.64539 0.0532,2.59619 0.50707,0.74852 0,0 -11.81056,9.23849 -11.81056,9.23849 v 0 c -1.49957,-0.47758 -2.03554,-1.71804 -1.92978,-3.24433 0,-1.5119 0,-3.0238 0,-4.53571 0,-1.5119 0,-3.02381 0,-4.53571 0,-1.51191 0,-3.02381 0,-4.53572 0,-1.5119 0,-3.02381 0,-4.53571 0,-1.51191 0,-3.02381 0,-4.53571 0,-1.51191 0,-3.02382 0,-4.53572 0,-1.51191 0,-3.02381 0,-4.53571 0,-1.51191 0,-3.02381 0,-4.53572 0,-1.5119 0,-3.02381 0,-4.53571 0,-1.51191 0,-3.02381 0,-4.53572 0,-1.5119 0,-3.02381 0,-4.53571 0,-1.5119 0,-3.0238 0,-4.5357 -1e-5,-1.51189 -3e-5,-3.02378 -5e-5,-4.535677 -1e-5,-1.512128 -5e-5,-3.024256 2.7e-4,-4.536384 5.3e-4,-1.513679 10e-4,-3.027357 0.004,-4.541033 0.003,-1.504709 0.009,-3.009464 -0.003,-4.514144 -0.0191,-1.364459 -0.0325,-2.736781 -0.25731,-4.086317 -0.24386,-1.181516 -0.69326,-2.300449 -0.90988,-3.487431 -0.45333,-1.255498 -1.28743,-2.370624 -1.10182,-3.781173 2e-5,-1.511909 5e-5,-3.023817 8e-5,-4.535723 1e-5,-1.511869 8e-5,-3.023738 -5.3e-4,-4.535607 -7.9e-4,-1.511591 -0.002,-3.023182 -0.007,-4.534768 -0.004,-1.513056 -0.0148,-3.026275 0.008,-4.539231 0.0393,-1.545651 0.0989,-3.102972 0.49026,-4.60757 0.47508,-1.62636 1.12337,-3.18615 1.42943,-4.863346 0,0 13.56643,-6.274276 13.56643,-6.274276 z"
         id="path1041"
         style="opacity:1;fill:#ffffff;stroke:#00fed8;stroke-width:0.26458332;stroke-opacity:1" />
    </g>
  </g>
</svg>
